<?xml version="1.0" encoding="UTF-8"?><svg id="a" xmlns="http://www.w3.org/2000/svg" width="400" height="400" viewBox="0 0 400 400"><path d="M136.57,101.99c0,7.17-5.82,12.99-12.99,12.99h-57.64c-7.17,0-12.99-5.81-12.99-12.99v-16.2c0-7.17,5.81-12.98,12.99-12.98h57.64c7.17,0,12.99,5.81,12.99,12.98v16.2h0Z" fill="#212528"/><rect x="325.25" y="85.33" width="44.66" height="22.52" rx="6.94" ry="6.94" fill="#212528"/><path d="M389.77,306.53c0,17.93-14.54,32.46-32.46,32.46H40.24c-17.92,0-32.46-14.53-32.46-32.46v-9.74H389.77v9.74Z" fill="#212528"/><path d="M7.77,126.34c0-17.93,14.54-32.46,32.46-32.46H357.3c17.93,0,32.46,14.54,32.46,32.46v9.74H7.77v-9.74Z" fill="#51575b"/><rect x="7.77" y="134.45" width="382" height="168.81" fill="#3e4347"/><path d="M334.02,113.55H142.53l19.21-64.67c1.62-3.61,9.59-9.46,14.35-10.78,29.19-8.06,95.18-8.06,124.37,0,4.76,1.32,12.73,7.17,14.35,10.78l19.21,64.67Z" fill="#51575b"/><path d="M324.71,182.84H151.84l17.34-87.32c1.46-4.88,8.65-12.78,12.96-14.55,26.35-10.88,85.93-10.88,112.28,0,4.3,1.78,11.49,9.68,12.96,14.55l17.33,87.32Z" fill="#3e4347"/><path d="M369.59,230.81c0,72.55-58.81,131.31-131.3,131.31s-131.32-58.76-131.32-131.31S165.77,99.5,238.29,99.5c72.5,0,131.3,58.8,131.3,131.31Z" fill="#788287"/><path d="M355,230.79c0,64.5-52.27,116.72-116.71,116.72s-116.74-52.23-116.74-116.72,52.27-116.72,116.74-116.72,116.71,52.27,116.71,116.72Z" fill="#212528"/><circle cx="238.29" cy="230.79" r="94.84" fill="#3e4347"/><circle cx="238.29" cy="230.8" r="51.07" fill="#212528"/><g isolation="isolate" opacity=".5"><path d="M308.05,190.34c0,16.21-13.15,29.37-29.37,29.37s-29.38-13.16-29.38-29.37,13.15-29.38,29.38-29.38c16.22,0,29.37,13.17,29.37,29.38Z" fill="#f5f5f5"/></g><g isolation="isolate" opacity=".5"><circle cx="220.04" cy="249.04" r="18.24" fill="#f5f5f5"/></g><g isolation="isolate" opacity=".5"><circle cx="187.22" cy="281.87" r="11.29" fill="#f5f5f5"/></g><rect x="16.14" y="147.98" width="81.16" height="141.76" rx="12.99" ry="12.99" fill="#636c72"/><circle cx="68.1" cy="117.13" r="18.94" fill="#212528"/></svg>