<svg data-v-423bf9ae="" xmlns="http://www.w3.org/2000/svg" viewBox="0 0 NaN NaN" class="iconAbove"><!----><!----><!----><g data-v-423bf9ae="" id="02d82966-53a2-4a15-b8ab-d1e51c06f626" fill="black" transform="matrix(Infinity,0,0,Infinity,0,0)"><path d=""></path></g><!----><g data-v-423bf9ae="" id="a56cc567-8848-44b0-8a8d-54e8d4d7d559" transform="matrix(1.0222222222222221,0,0,1.0222222222222221,-1.1333334181043782,-2.0888888888888886)" stroke="none" fill="black"><path d="M93.867 18H82.374c-4.063-7-7.926-15-16.879-15H52.006c-8.955 0-12.817 8-16.878 15H22.263c-.986-1-1.912-1-4.083-1h-2.355c-2.172 0-3.097 0-4.083 1H8.133C4.345 18 1 20.641 1 24.429v63.443C1 91.66 4.345 95 8.133 95h85.734c3.788 0 7.133-3.34 7.133-7.128V24.429C101 20.641 97.655 18 93.867 18zM59.002 77.292c-15.783 0-28.578-12.793-28.578-28.577S43.22 20.139 59.002 20.139s28.579 12.793 28.579 28.577-12.797 28.576-28.579 28.576z"></path><circle cx="58.944" cy="48.717" r="26.388"></circle></g><!----></svg>