<svg data-v-fde0c5aa="" xmlns="http://www.w3.org/2000/svg" viewBox="0 0 300 300" class="iconAbove"><!----><defs data-v-fde0c5aa=""><!----></defs><rect data-v-fde0c5aa="" fill="transparent" x="0" y="0" width="300px" height="300px" class="logo-background-square"></rect><defs data-v-fde0c5aa=""><!----></defs><g data-v-fde0c5aa="" id="4d1d7e64-01fe-4161-9329-b98efecc8b9d" fill="#C9C58D"><path d=""></path></g><defs data-v-fde0c5aa=""><linearGradient data-v-fde0c5aa="" gradientTransform="rotate(25)" id="58c4975c-e0f3-4712-88e9-972ddebf249b" x1="0%" y1="0%" x2="100%" y2="0%"><stop data-v-fde0c5aa="" offset="0%" stop-color="#000000" stop-opacity="1"></stop><stop data-v-fde0c5aa="" offset="100%" stop-color="#6E6952" stop-opacity="1"></stop></linearGradient></defs><g data-v-fde0c5aa="" id="b98a28b1-a9e4-4fab-b3c8-7e9060c1f4ae" stroke="none" fill="url(#58c4975c-e0f3-4712-88e9-972ddebf249b)"><path d="M93.867 18H82.374c-4.063-7-7.926-15-16.879-15H52.006c-8.955 0-12.817 8-16.878 15H22.263c-.986-1-1.912-1-4.083-1h-2.355c-2.172 0-3.097 0-4.083 1H8.133C4.345 18 1 20.641 1 24.429v63.443C1 91.66 4.345 95 8.133 95h85.734c3.788 0 7.133-3.34 7.133-7.128V24.429C101 20.641 97.655 18 93.867 18zM59.002 77.292c-15.783 0-28.578-12.793-28.578-28.577S43.22 20.139 59.002 20.139s28.579 12.793 28.579 28.577-12.797 28.576-28.579 28.576z"></path><circle cx="58.944" cy="48.717" r="26.388"></circle></g><!----></svg>