<?xml version="1.0" encoding="UTF-8"?><svg id="a" xmlns="http://www.w3.org/2000/svg" width="400" height="400" viewBox="0 0 400 400"><path d="M169.66,252.09c-6.14-6.13-9.2-12.88-9.2-20.24,0-4.29,1.22-7.82,3.68-10.58,2.45-2.76,6.74-4.9,12.88-6.44l31.74-8.28c20.24-5.21,35.8-12.95,46.69-23.23,10.88-10.27,16.33-23.69,16.33-40.25,0-14.72-5.29-27.37-15.87-37.95-10.58-10.58-27.07-15.87-49.45-15.87-12.27,0-24.61,1.92-37.03,5.75-12.42,3.84-22.31,8.82-29.67,14.95-7.06-5.21-10.58-11.8-10.58-19.78,0-4.6,1.91-8.89,5.75-12.88,3.83-3.98,9.27-7.51,16.33-10.58,7.05-3.06,15.33-5.52,24.84-7.36,9.5-1.84,20.08-2.76,31.74-2.76,15.02,0,28.82,2.15,41.4,6.44,12.57,4.3,23.38,10.2,32.43,17.71,9.04,7.52,16.02,16.56,20.93,27.14,4.9,10.58,7.36,22.16,7.36,34.73,0,26.07-7.9,47-23.69,62.79-15.8,15.8-39.64,27.68-71.53,35.65l-45.08,11.04Zm-5.06,71.3c0-7.36,2.3-13.57,6.9-18.63,4.6-5.06,10.88-7.59,18.86-7.59s14.33,2.53,19.09,7.59c4.75,5.06,7.13,11.27,7.13,18.63s-2.38,13.5-7.13,18.4c-4.76,4.9-11.12,7.36-19.09,7.36s-14.26-2.46-18.86-7.36c-4.6-4.9-6.9-11.04-6.9-18.4Z" fill="#b8b8b8"/></svg>