<svg data-v-fde0c5aa="" xmlns="http://www.w3.org/2000/svg" viewBox="0 0 300 300" class="iconAbove"><!----><defs data-v-fde0c5aa=""><!----></defs><rect data-v-fde0c5aa="" fill="transparent" x="0" y="0" width="300px" height="300px" class="logo-background-square"></rect><defs data-v-fde0c5aa=""><!----></defs><g data-v-fde0c5aa="" id="00097046-13b3-46a3-9c6e-9b7daf691b76" fill="#C9C58D"><path d=""></path></g><defs data-v-fde0c5aa=""><linearGradient data-v-fde0c5aa="" gradientTransform="rotate(25)" id="b0abb14c-e4fc-4b48-bde6-a7ddd4a13c18" x1="0%" y1="0%" x2="100%" y2="0%"><stop data-v-fde0c5aa="" offset="0%" stop-color="#000000" stop-opacity="1"></stop><stop data-v-fde0c5aa="" offset="100%" stop-color="#6E6952" stop-opacity="1"></stop></linearGradient></defs><g data-v-fde0c5aa="" id="1cd013e9-fdd0-41f7-a99b-b6693bf396da" stroke="none" fill="url(#b0abb14c-e4fc-4b48-bde6-a7ddd4a13c18)"><path d="M33.103 86.002s-.02-.568-.008-1.27c.008-.703 23.751-1.407 23.751-1.407-.009 1.057-.02.521-.006 1.272.011.753-23.737 1.405-23.737 1.405m.003 3.31c.023.832 23.751.99 23.728.025-.022-.964 0-2.101.003-3.917-.034.995-23.705 1.482-23.722 2.103-.02 1.161-.032.957-.009 1.789m.003-6.012s23.751-.652 23.737-1.405c-.012-.75 0-.215.008-1.271 0 0-23.745.702-23.754 1.406-.008.702.009 1.27.009 1.27m.008-2.702s23.751-.652 23.737-1.404c-.014-.751 0-.216.006-1.272 0 0-23.743.702-23.751 1.405a33.25 33.25 0 0 0 .008 1.271m.037-2.701s23.751-.652 23.737-1.405c-.014-.751 0-.216.006-1.272 0 0-23.743.703-23.751 1.405-.009.702.008 1.272.008 1.272m.009-2.702s23.748-.654 23.736-1.405c-.014-.751-.002-.215.006-1.272 0 0-23.745.703-23.754 1.405-.008.703.012 1.272.012 1.272m41.731-43.969c-.638 7.823-7.34 12.931-12.323 18.22-1.139 1.506-2.05 3.154-2.795 4.844-1.951 4.424 3.742 10.757-.417 14.254 0 2.195-2.102 3.974-4.696 3.974H35.111c-2.593 0-4.696-1.779-4.696-3.974-4.158-3.497 1.534-9.83-.417-14.254-.745-1.69-1.656-3.338-2.795-4.844-5.889-5.56-12.582-9.348-12.582-18.22 0-40.789 60.273-42.073 60.273 0M48.256 6.754c-10.058 0-19.652 5.766-25.708 13.749-1.477 1.931-5.027 6.629-2.946 9.166 2.205 2.754 6.011 4.291 9.503 3.892 2.468-.61 5.426-2.77 5.1-5.595-.33-1.392-1.794-2.116-4.391-2.173 1.41-2.083 3.842-4.532 7.599-6.883 7.587-4.749 17.25-6.101 19.492-.666 3.694 8.957-10.75 14.779-16.596 20.843-2.798 2.558-6.551 6.155-5.456 10.116 1.123 4.065 6.977 5.6 11.023 5.196a11.11 11.11 0 0 0 2.38-.72c.224-2.281-3.94-4.763-3.53-6.378.979-3.852 5.469-6.556 8.599-9.028 8.367-4.945 20.848-12.89 11.681-24.98-3.672-4.841-11.284-6.539-16.75-6.539M44.48 58.928c-.39.045-.793.036-1.17.135-1.869.493-3.722 1.63-4.351 3.375-.178.493-.143 1.035-.091 1.551.027.276.137.559.325.78.407.478.896.905 1.424 1.277 1.193.838 3.93 1.319 5.413 1.049 1.756-.32 6.396-3.121 5.927-5.115-.458-1.951-3.043-2.459-4.857-2.863l-2.62-.189"></path></g><!----></svg>