<?xml version="1.0" encoding="UTF-8"?><svg id="a" xmlns="http://www.w3.org/2000/svg" width="5000" height="1000" viewBox="0 0 5000 1000"><path d="M326.52,503.31c-2.12,.54-3.54-.54-4.95-2.18-21.22-38.08-72.86-54.4-123.09-54.4s-77.11,13.6-77.11,36.45c0,27.2,47.4,29.38,107.53,34.82,73.57,6.53,131.58,23.94,131.58,74.54,0,55.49-65.79,90.31-152.8,90.31-67.91,0-117.43-16.87-152.09-36.45-2.83-2.18-4.24-3.81-4.24-6.53v-64.2c0-1.63,.71-3.26,2.83-3.81l16.27-3.81c2.12-.54,3.54,0,4.95,1.63,21.93,40.8,76.4,61.48,131.58,61.48,51.64,0,82.06-14.15,82.06-37.54s-41.74-27.2-96.21-31.01c-72.16-4.9-145.02-17.95-145.02-77.8,0-50.05,51.64-88.68,141.48-88.68,71.45,0,120.97,16.87,156.34,35.36,2.12,1.09,3.54,2.72,3.54,4.9v59.85c0,1.09-2.12,2.72-4.24,3.26l-18.39,3.81Z" fill="#b8b8b8"/><path d="M744.6,636.6c0,2.18-.71,4.9-3.54,6.53-31.13,21.76-82.77,39.72-144.31,39.72-96.21,0-186.76-46.79-186.76-144.17,0-91.94,82.06-142.54,181.1-142.54,104.7,0,164.83,52.77,164.83,122.96v26.66c0,4.35-4.24,7.62-9.9,7.62H484.98c5.66,50.05,60.84,72.9,118.14,72.9,46.69,0,93.38-14.69,116.72-40.8,1.42-1.63,3.54-1.63,6.37-1.09l14.86,4.35c2.12,1.09,3.54,1.63,3.54,3.81v44.07Zm-55.89-120.78c0-42.44-41.03-65.29-99.04-65.29-65.08,0-98.33,28.83-105.4,65.29h204.44Z" fill="#b8b8b8"/><path d="M965.31,676.32c-3.54,0-6.37-1.63-7.78-4.35l-115.31-212.72h-59.42c-7.07,0-11.32-2.72-11.32-9.25v-37.54c0-6.53,2.83-9.25,12.73-9.25h187.46c9.9,0,12.73,2.72,12.73,9.25v37.54c0,6.53-4.24,9.25-11.32,9.25h-54.47l82.77,161.04h4.95l79.94-161.04h-44.57c-7.07,0-11.32-2.72-11.32-9.25v-37.54c0-6.53,2.83-9.25,12.73-9.25h163.41c9.9,0,12.73,2.72,12.73,9.25v37.54c0,6.53-4.24,9.25-11.32,9.25h-53.06l-108.94,212.72c-1.42,2.72-4.24,4.35-7.78,4.35h-72.86Z" fill="#b8b8b8"/><path d="M1565.9,636.6c0,2.18-.71,4.9-3.54,6.53-31.13,21.76-82.77,39.72-144.31,39.72-96.21,0-186.76-46.79-186.76-144.17,0-91.94,82.06-142.54,181.1-142.54,104.7,0,164.83,52.77,164.83,122.96v26.66c0,4.35-4.24,7.62-9.9,7.62h-261.04c5.66,50.05,60.84,72.9,118.14,72.9,46.69,0,93.38-14.69,116.72-40.8,1.42-1.63,3.54-1.63,6.37-1.09l14.86,4.35c2.12,1.09,3.54,1.63,3.54,3.81v44.07Zm-55.89-120.78c0-42.44-41.03-65.29-99.04-65.29-65.08,0-98.33,28.83-105.4,65.29h204.44Z" fill="#b8b8b8"/><path d="M1626.03,676.32c-7.07,0-11.32-2.72-11.32-9.25v-36.45c0-6.53,2.83-9.79,12.73-9.79h64.37v-163.22h-64.37c-10.61,0-12.73-2.72-12.73-9.25v-35.91c0-6.53,4.24-9.25,11.32-9.25h107.53c12.03,0,16.98,7.07,16.98,14.69v73.45h6.37c7.07-66.37,50.93-88.68,96.92-88.68,15.56,0,40.32,1.63,56.59,13.6,1.42,1.09,2.12,2.18,2.12,4.35v60.93c0,2.18-1.42,4.9-4.24,4.9h-12.73c-2.12,0-4.24-1.09-5.66-2.72-9.9-8.71-25.47-12.51-44.57-13.06-39.62-.54-83.48,26.66-83.48,81.06v69.09h69.33c9.9,0,12.73,3.26,12.73,9.79v36.45c0,6.53-4.24,9.25-11.32,9.25h-206.56Z" fill="#b8b8b8"/><path d="M1961.33,676.32c-7.07,0-11.32-2.72-11.32-9.25v-37c0-6.53,2.83-9.25,12.73-9.25h58.72v-162.13h-62.25c-9.9,0-12.73-2.72-12.73-9.25v-37c0-6.53,4.24-9.25,11.32-9.25h118.14c10.61,0,15.56,5.44,15.56,13.06v204.56h55.18c9.9,0,12.73,2.72,12.73,9.25v37c0,6.53-4.24,9.25-11.32,9.25h-186.76Zm89.84-310.11c-29.71,0-55.89-16.87-55.89-39.72s26.17-40.26,55.89-40.26,55.89,16.87,55.89,40.26-25.47,39.72-55.89,39.72Z" fill="#b8b8b8"/><path d="M2454.39,676.32c-7.07,0-12.03-3.81-12.03-9.25v-37c0-5.44,4.95-9.25,12.03-9.25h52.35v-126.22c0-25.57-31.83-38.08-67.91-38.08-48.1,0-105.4,22.85-105.4,70.18v94.12h48.1c7.07,0,12.03,3.81,12.03,9.25v37c0,5.44-4.95,9.25-12.03,9.25h-175.44c-7.07,0-12.03-3.81-12.03-9.25v-37c0-5.44,4.95-9.25,12.03-9.25h58.01v-162.13h-61.54c-9.9,0-12.73-2.72-12.73-9.25v-37c0-6.53,4.24-9.25,11.32-9.25h106.11c9.9,0,13.44,3.81,14.15,8.71l7.78,54.41h4.24c19.1-49.51,71.45-70.18,124.5-70.18,77.11,0,118.85,34.82,118.85,82.15v142.54h55.18c7.07,0,12.03,3.81,12.03,9.25v37c0,5.44-4.95,9.25-12.03,9.25h-177.56Z" fill="#b8b8b8"/><path d="M2746.55,681.76c-32.54,0-59.42-20.67-59.42-45.7s26.88-46.24,59.42-46.24,60.13,20.67,60.13,46.24-26.88,45.7-60.13,45.7Z" fill="#b8b8b8"/><path d="M3212.74,676.32c-4.24,0-8.49-2.18-9.2-5.98l-66.5-206.74h-6.37l-67.91,206.74c-1.42,3.81-4.95,5.98-9.9,5.98h-82.06c-4.95,0-7.78-1.63-9.2-5.44l-82.77-212.18h-55.18c-7.07,0-11.32-2.72-11.32-9.25v-37c0-6.53,2.83-9.25,12.73-9.25h191c9.9,0,12.73,2.72,12.73,9.25v37c0,6.53-4.24,9.25-11.32,9.25h-60.84l54.47,154.51h12.03l69.33-200.76c2.12-6.53,4.24-9.25,14.15-9.25h54.47c9.9,0,12.03,2.72,14.15,9.25l71.45,199.67h10.61l53.06-153.42h-58.72c-7.07,0-11.32-2.72-11.32-9.25v-37c0-6.53,2.83-9.25,12.73-9.25h180.39c9.9,0,12.73,2.72,12.73,9.25v37c0,6.53-4.25,9.25-11.32,9.25h-54.47l-82.77,212.18c-1.42,3.81-4.95,5.44-9.2,5.44h-75.69Z" fill="#b8b8b8"/><path d="M3645.68,682.85c-132.99,0-186.76-67.46-186.76-143.09s53.76-143.63,186.76-143.63,186.76,68.01,186.76,143.63-53.76,143.09-186.76,143.09Zm.71-230.68c-82.77,0-118.84,37.54-118.84,87.59s36.08,87.05,118.84,87.05,117.43-37.54,117.43-87.05-36.08-87.59-117.43-87.59Z" fill="#b8b8b8"/><path d="M3875.59,676.32c-7.07,0-11.32-2.72-11.32-9.25v-36.45c0-6.53,2.83-9.79,12.73-9.79h64.38v-163.22h-64.38c-10.61,0-12.73-2.72-12.73-9.25v-35.91c0-6.53,4.24-9.25,11.32-9.25h107.53c12.03,0,16.98,7.07,16.98,14.69v73.45h6.37c7.07-66.37,50.93-88.68,96.92-88.68,15.56,0,40.32,1.63,56.59,13.6,1.42,1.09,2.12,2.18,2.12,4.35v60.93c0,2.18-1.41,4.9-4.24,4.9h-12.73c-2.12,0-4.24-1.09-5.66-2.72-9.9-8.71-25.47-12.51-44.57-13.06-39.62-.54-83.47,26.66-83.47,81.06v69.09h69.33c9.9,0,12.73,3.26,12.73,9.79v36.45c0,6.53-4.24,9.25-11.32,9.25h-206.56Z" fill="#b8b8b8"/><path d="M4600.68,586c3.54,0,4.95,1.09,5.66,3.81,2.12,7.07,3.54,15.23,4.25,22.85,2.12,32.64-17.69,70.18-83.47,70.18-118.14,0-150.68-142.54-216.47-121.87v59.85h49.52c9.9,0,12.73,2.72,12.73,9.25v37c0,6.53-4.24,9.25-11.32,9.25h-181.1c-7.07,0-11.32-2.72-11.32-9.25v-37c0-6.53,2.83-9.25,12.73-9.25h58.71V350.97h-62.25c-9.9,0-12.73-2.72-12.73-9.25v-37c0-6.53,4.24-9.25,11.32-9.25h118.14c10.61,0,15.56,5.44,15.56,13.06v164.85h4.95c26.17-56.58,86.3-77.26,137.24-77.26,63.67,0,113.89,29.38,113.89,78.34,0,53.32-54.47,86.5-137.95,86.5v3.81c25.47,22.85,69.33,53.32,109.65,52.77,23.34-.54,41.03-3.81,48.81-28.29,.71-1.63,2.12-3.26,5.66-3.26h7.78Zm-204.44-51.68c62.96,0,101.87-11.43,101.87-42.98,0-23.39-30.42-37.54-67.91-37-46.69,0-111.06,27.75-118.14,83.24,14.86-10.88,60.13-15.78,84.18-3.26Z" fill="#b8b8b8"/><path d="M4928.21,503.31c-2.12,.54-3.54-.54-4.95-2.18-21.22-38.08-72.86-54.4-123.09-54.4s-77.11,13.6-77.11,36.45c0,27.2,47.4,29.38,107.53,34.82,73.57,6.53,131.58,23.94,131.58,74.54,0,55.49-65.79,90.31-152.8,90.31-67.91,0-117.43-16.87-152.09-36.45-2.83-2.18-4.24-3.81-4.24-6.53v-64.2c0-1.63,.71-3.26,2.83-3.81l16.27-3.81c2.12-.54,3.54,0,4.95,1.63,21.93,40.8,76.4,61.48,131.58,61.48,51.64,0,82.06-14.15,82.06-37.54s-41.74-27.2-96.21-31.01c-72.16-4.9-145.02-17.95-145.02-77.8,0-50.05,51.64-88.68,141.48-88.68,71.45,0,120.97,16.87,156.34,35.36,2.12,1.09,3.54,2.72,3.54,4.9v59.85c0,1.09-2.12,2.72-4.25,3.26l-18.39,3.81Z" fill="#b8b8b8"/></svg>